<?xml version="1.0" encoding="utf-8"?>
<!-- Generator: Adobe Illustrator 26.1.0, SVG Export Plug-In . SVG Version: 6.00 Build 0)  -->
<svg version="1.1" id="Layer_1" xmlns="http://www.w3.org/2000/svg" xmlns:xlink="http://www.w3.org/1999/xlink" x="0px" y="0px"
	 viewBox="0 0 400 400" style="enable-background:new 0 0 400 400;" xml:space="preserve">
<path d="M144.3,291.2h-11.6l-13.9,55.8h9.8l3-12.6h13.8l3.1,12.6h9.8L144.3,291.2z M134,324.6l4.6-18.8l4.5,18.8H134z"/>
<polygon points="194.7,291.2 194.7,346.9 185,346.9 185,323.5 172.3,323.5 172.3,346.9 162.6,346.9 162.6,291.2 172.3,291.2 
	172.3,313.7 185,313.7 185,291.2 "/>
<polygon points="122.5,300.9 111.8,300.9 111.8,346.9 102.1,346.9 102.1,300.9 91.5,300.9 91.5,291.2 122.5,291.2 "/>
<path d="M87.1,291.2v44.2c0,3.3-1.2,6.4-3.5,8.7c-2.3,2.2-5.3,3.5-8.7,3.5h-8.5c-3.3,0-6.4-1.2-8.7-3.5c-2.3-2.3-3.5-5.3-3.5-8.7
	v-44.2H64v46.6h13.3v-46.6H87.1z"/>
<path d="M241.1,291.4v44.2c0,3.3-1.2,6.4-3.5,8.7c-2.3,2.3-5.3,3.5-8.7,3.5h-8.5c-3.3,0-6.4-1.2-8.7-3.5c-2.3-2.3-3.5-5.3-3.5-8.7
	v-11.1h9.8v13.6h13.3l0-46.7H241.1z"/>
<path d="M269.7,291.4h-11.6l-13.9,55.8h9.8l3-12.6h13.8l3.1,12.6h9.8L269.7,291.4z M268.5,324.9h-9.1l4.6-18.8L268.5,324.9z"/>
<polygon points="315.4,301 297.4,337.4 315.4,337.4 315.4,347.2 286.4,347.2 286.4,337.7 286.5,337.6 304.5,301.2 286.4,301.2 
	286.4,291.4 315.4,291.4 315.4,300.9 "/>
<polygon points="349.2,301 331.2,337.4 349.3,337.4 349.3,347.2 320.2,347.2 320.2,337.7 320.3,337.6 338.3,301.2 320.2,301.2 
	320.2,291.4 349.3,291.4 349.3,300.9 "/>
<path d="M351,53.3l-29.4,63.1H203.7L166.6,196h-33.3c0.3-4,1.1-7.9,2.3-11.8c3.2-9.6,9.2-17.5,16.7-23.2c2,2.3,3.8,4.7,5.4,7.3
	c0.3,0.4,0.8,0.4,0.9,0c0,0,0,0,0,0l53.7-115.1H351z"/>
<path d="M78.1,220.7c-3.4,6.7-8.2,12.4-14,16.8c-4.9-5.6-8.7-12.3-11.2-19.8c-1.7-5-2.6-10.1-2.9-15.2h33.1
	C82.7,208.8,81,214.9,78.1,220.7"/>
<path d="M105,202.5v55.1c-13.5-0.8-26.4-6.3-36.2-15.4c6.3-4.9,11.5-11.2,15.2-18.6c3.4-6.7,5.3-13.8,5.7-21.1H105z"/>
<path d="M80.7,184.2c1.3,3.9,2.1,7.9,2.3,11.8H50c0.7-12.9,5.8-25.2,14.1-34.9C71.6,166.7,77.6,174.6,80.7,184.2"/>
<path d="M105,141V196H89.6c-0.3-4.7-1.2-9.3-2.7-13.9c-3.5-10.6-10-19.4-18.2-25.8c5.9-5.5,13.1-9.8,21.2-12.5
	C94.9,142.2,99.9,141.3,105,141"/>
<path d="M126.8,196h-15.3V141c13.6,0.7,26.4,6.2,36.3,15.3c-8.5,6.5-14.9,15.4-18.3,25.8C128,186.7,127.1,191.4,126.8,196"/>
<path d="M147.8,242.3c-5.9,5.4-13,9.7-21.1,12.4c-5.1,1.7-10.2,2.6-15.3,2.9v-55.1h15.3c0.5,7.3,2.4,14.4,5.7,21.1
	C136.2,231,141.4,237.4,147.8,242.3"/>
<path d="M166.6,202.5c-0.7,13-5.8,25.3-14.2,35c-5.9-4.4-10.7-10.1-14.1-16.9c-2.9-5.8-4.6-11.9-5-18.2H166.6z"/>
</svg>
